<svg width="36" height="33" viewBox="0 0 36 33" fill="none" xmlns="http://www.w3.org/2000/svg">
<path d="M0 0V16.6224C0 19.2762 0.535779 21.7258 1.60734 23.9713C2.6789 26.2168 4.15229 28.1415 6.02752 29.7454C5.25361 28.6372 4.65116 27.42 4.22015 26.0937C3.78796 24.7662 3.57186 23.3589 3.57186 21.8716C3.57186 19.7136 4.02608 17.4605 4.93453 15.1124C5.84178 12.7654 7.35208 10.0464 9.46543 6.95517L0 0ZM17.8593 1.6185C13.9005 6.28444 11.1252 10.3012 9.5333 13.6689C7.94025 17.0377 7.14372 19.7719 7.14372 21.8716C7.14372 24.7878 8.18552 27.2666 10.2691 29.308C12.3527 31.3493 14.8828 32.37 17.8593 32.37C20.8359 32.37 23.3659 31.3493 25.4495 29.308C27.5331 27.2666 28.5749 24.7878 28.5749 21.8716C28.5749 19.7719 27.7712 17.0231 26.1639 13.6251C24.5565 10.2283 21.7884 6.22612 17.8593 1.6185ZM35.7186 0L26.2532 6.95517C28.3665 10.0464 29.8774 12.7654 30.7859 15.1124C31.6931 17.4605 32.1468 19.7136 32.1468 21.8716C32.1468 23.3589 31.9312 24.7662 31.5002 26.0937C31.0681 27.42 30.465 28.6372 29.6911 29.7454C31.5663 28.1415 33.0397 26.2168 34.1113 23.9713C35.1828 21.7258 35.7186 19.2762 35.7186 16.6224V0Z" fill="#5162F6"/>
</svg>
